<svg id="kuro-void-3" width="450" height="450" viewBox="-160.00 -160.00 320.00 320.00" xmlns="http://www.w3.org/2000/svg" class="drop-shadow-2xl transition-all duration-300 cursor-crosshair" preserveAspectRatio="xMidYMid meet">
  <g>
    <g transform="rotate(0)">
      <g transform="rotate(0)">
        <path d="M 0 0  L 58 -57.4 Q 41.76 -103.656 0 -140  Q -41.76 -103.656 -58 -57.4 L 0 0 Z" fill="#554b98" stroke="none"/>
        <path d="M 0 0  L 58 -57.4 Q 41.76 -103.656 0 -140 L 0 0 Z" fill="#8060b0" stroke="none"/>
        <path d="M 0 0  L 58 -57.4 Q 41.76 -103.656 0 -140  Q -41.76 -103.656 -58 -57.4 L 0 0 Z" fill="none" stroke="#2a2c58" stroke-width="12" stroke-linejoin="round" stroke-linecap="round"/>
      </g>
      <g transform="rotate(90)">
        <path d="M 0 0  L 58 -57.4 Q 41.76 -103.656 0 -140  Q -41.76 -103.656 -58 -57.4 L 0 0 Z" fill="#8060b0" stroke="none"/>
        <path d="M 0 0  L 58 -57.4 Q 41.76 -103.656 0 -140 L 0 0 Z" fill="#554b98" stroke="none"/>
        <path d="M 0 0  L 58 -57.4 Q 41.76 -103.656 0 -140  Q -41.76 -103.656 -58 -57.4 L 0 0 Z" fill="none" stroke="#2a2c58" stroke-width="12" stroke-linejoin="round" stroke-linecap="round"/>
      </g>
      <g transform="rotate(180)">
        <path d="M 0 0  L 58 -57.4 Q 41.76 -103.656 0 -140  Q -41.76 -103.656 -58 -57.4 L 0 0 Z" fill="#554b98" stroke="none"/>
        <path d="M 0 0  L 58 -57.4 Q 41.76 -103.656 0 -140 L 0 0 Z" fill="#554b98" stroke="none"/>
        <path d="M 0 0  L 58 -57.4 Q 41.76 -103.656 0 -140  Q -41.76 -103.656 -58 -57.4 L 0 0 Z" fill="none" stroke="#2a2c58" stroke-width="12" stroke-linejoin="round" stroke-linecap="round"/>
      </g>
      <g transform="rotate(270)">
        <path d="M 0 0  L 58 -57.4 Q 41.76 -103.656 0 -140  Q -41.76 -103.656 -58 -57.4 L 0 0 Z" fill="#554b98" stroke="none"/>
        <path d="M 0 0  L 58 -57.4 Q 41.76 -103.656 0 -140 L 0 0 Z" fill="#554b98" stroke="none"/>
        <path d="M 0 0  L 58 -57.4 Q 41.76 -103.656 0 -140  Q -41.76 -103.656 -58 -57.4 L 0 0 Z" fill="none" stroke="#2a2c58" stroke-width="12" stroke-linejoin="round" stroke-linecap="round"/>
      </g>
    </g>
  </g>
</svg>
